<mxfile host="app.diagrams.net" agent="Mozilla/5.0 (Windows NT 10.0; Win64; x64; rv:140.0) Gecko/20100101 Firefox/140.0" version="27.2.0">
  <diagram id="C5RBs43oDa-KdzZeNtuy" name="Page-1">
    <mxGraphModel dx="1239" dy="730" grid="1" gridSize="10" guides="1" tooltips="1" connect="1" arrows="1" fold="1" page="1" pageScale="1" pageWidth="1169" pageHeight="1654" math="0" shadow="0">
      <root>
        <mxCell id="WIyWlLk6GJQsqaUBKTNV-0" />
        <mxCell id="WIyWlLk6GJQsqaUBKTNV-1" parent="WIyWlLk6GJQsqaUBKTNV-0" />
        <mxCell id="CN9I-mN8UUnUp_FmiRYe-0" value="User" style="swimlane;fontStyle=0;childLayout=stackLayout;horizontal=1;startSize=30;horizontalStack=0;resizeParent=1;resizeParentMax=0;resizeLast=0;collapsible=1;marginBottom=0;whiteSpace=wrap;html=1;" vertex="1" parent="WIyWlLk6GJQsqaUBKTNV-1">
          <mxGeometry x="120" y="40" width="140" height="130" as="geometry" />
        </mxCell>
        <mxCell id="CN9I-mN8UUnUp_FmiRYe-2" value="# firstName : QString&lt;br&gt;# lastName : QString&lt;br&gt;# phone : QString&lt;br&gt;#&amp;nbsp; password : QString&lt;br&gt;# isBlocked : bool" style="text;strokeColor=none;fillColor=none;align=left;verticalAlign=middle;spacingLeft=4;spacingRight=4;overflow=hidden;points=[[0,0.5],[1,0.5]];portConstraint=eastwest;rotatable=0;whiteSpace=wrap;html=1;" vertex="1" parent="CN9I-mN8UUnUp_FmiRYe-0">
          <mxGeometry y="30" width="140" height="100" as="geometry" />
        </mxCell>
        <mxCell id="CN9I-mN8UUnUp_FmiRYe-4" value="RestaurantOwner" style="swimlane;fontStyle=0;childLayout=stackLayout;horizontal=1;startSize=30;horizontalStack=0;resizeParent=1;resizeParentMax=0;resizeLast=0;collapsible=1;marginBottom=0;whiteSpace=wrap;html=1;" vertex="1" parent="WIyWlLk6GJQsqaUBKTNV-1">
          <mxGeometry x="60" y="320" width="150" height="80" as="geometry" />
        </mxCell>
        <mxCell id="CN9I-mN8UUnUp_FmiRYe-5" value="- restaurant : Restaurant" style="text;strokeColor=none;fillColor=none;align=left;verticalAlign=middle;spacingLeft=4;spacingRight=4;overflow=hidden;points=[[0,0.5],[1,0.5]];portConstraint=eastwest;rotatable=0;whiteSpace=wrap;html=1;" vertex="1" parent="CN9I-mN8UUnUp_FmiRYe-4">
          <mxGeometry y="30" width="150" height="50" as="geometry" />
        </mxCell>
        <mxCell id="CN9I-mN8UUnUp_FmiRYe-8" value="" style="endArrow=classic;html=1;rounded=0;exitX=0.25;exitY=0;exitDx=0;exitDy=0;entryX=-0.016;entryY=0.14;entryDx=0;entryDy=0;entryPerimeter=0;" edge="1" parent="WIyWlLk6GJQsqaUBKTNV-1" source="CN9I-mN8UUnUp_FmiRYe-4" target="CN9I-mN8UUnUp_FmiRYe-0">
          <mxGeometry relative="1" as="geometry">
            <mxPoint x="360" y="240" as="sourcePoint" />
            <mxPoint x="460" y="240" as="targetPoint" />
            <Array as="points">
              <mxPoint x="98" y="58" />
            </Array>
          </mxGeometry>
        </mxCell>
        <mxCell id="CN9I-mN8UUnUp_FmiRYe-9" value="&lt;div&gt;&lt;b&gt;Inheritance&lt;/b&gt;&lt;/div&gt;" style="edgeLabel;resizable=0;html=1;;align=center;verticalAlign=middle;" connectable="0" vertex="1" parent="CN9I-mN8UUnUp_FmiRYe-8">
          <mxGeometry relative="1" as="geometry" />
        </mxCell>
        <mxCell id="CN9I-mN8UUnUp_FmiRYe-10" value="Restaurant" style="swimlane;fontStyle=0;childLayout=stackLayout;horizontal=1;startSize=30;horizontalStack=0;resizeParent=1;resizeParentMax=0;resizeLast=0;collapsible=1;marginBottom=0;whiteSpace=wrap;html=1;" vertex="1" parent="WIyWlLk6GJQsqaUBKTNV-1">
          <mxGeometry x="40" y="450" width="200" height="150" as="geometry" />
        </mxCell>
        <mxCell id="CN9I-mN8UUnUp_FmiRYe-11" value="&lt;div&gt;- id : int&lt;/div&gt;&lt;div&gt;- name :&amp;nbsp;QString&lt;/div&gt;- ownerUsername : QString&lt;br&gt;- province : QString&lt;br&gt;- city : QString&lt;br&gt;- isActive : bool&lt;br&gt;- menu :QMap&amp;lt;QString,MenuItem&amp;gt;" style="text;strokeColor=none;fillColor=none;align=left;verticalAlign=middle;spacingLeft=4;spacingRight=4;overflow=hidden;points=[[0,0.5],[1,0.5]];portConstraint=eastwest;rotatable=0;whiteSpace=wrap;html=1;" vertex="1" parent="CN9I-mN8UUnUp_FmiRYe-10">
          <mxGeometry y="30" width="200" height="120" as="geometry" />
        </mxCell>
        <mxCell id="CN9I-mN8UUnUp_FmiRYe-15" value="Composition" style="text;align=center;fontStyle=1;verticalAlign=middle;spacingLeft=3;spacingRight=3;strokeColor=none;rotatable=0;points=[[0,0.5],[1,0.5]];portConstraint=eastwest;html=1;" vertex="1" parent="WIyWlLk6GJQsqaUBKTNV-1">
          <mxGeometry x="70" y="412" width="80" height="26" as="geometry" />
        </mxCell>
        <mxCell id="CN9I-mN8UUnUp_FmiRYe-19" value="MenuItem" style="swimlane;fontStyle=0;childLayout=stackLayout;horizontal=1;startSize=26;fillColor=none;horizontalStack=0;resizeParent=1;resizeParentMax=0;resizeLast=0;collapsible=1;marginBottom=0;whiteSpace=wrap;html=1;" vertex="1" parent="WIyWlLk6GJQsqaUBKTNV-1">
          <mxGeometry x="65" y="656" width="150" height="60" as="geometry" />
        </mxCell>
        <mxCell id="CN9I-mN8UUnUp_FmiRYe-20" value="- foods :&amp;nbsp;QVector&amp;lt;Food&amp;gt;" style="text;strokeColor=none;fillColor=none;align=left;verticalAlign=top;spacingLeft=4;spacingRight=4;overflow=hidden;rotatable=0;points=[[0,0.5],[1,0.5]];portConstraint=eastwest;whiteSpace=wrap;html=1;" vertex="1" parent="CN9I-mN8UUnUp_FmiRYe-19">
          <mxGeometry y="26" width="150" height="34" as="geometry" />
        </mxCell>
        <mxCell id="CN9I-mN8UUnUp_FmiRYe-23" value="" style="endArrow=open;html=1;endSize=12;startArrow=diamondThin;startSize=14;startFill=1;edgeStyle=orthogonalEdgeStyle;align=left;verticalAlign=bottom;rounded=0;entryX=0.5;entryY=0;entryDx=0;entryDy=0;exitX=0.5;exitY=1;exitDx=0;exitDy=0;exitPerimeter=0;" edge="1" parent="WIyWlLk6GJQsqaUBKTNV-1" source="CN9I-mN8UUnUp_FmiRYe-11" target="CN9I-mN8UUnUp_FmiRYe-19">
          <mxGeometry x="-1" y="3" relative="1" as="geometry">
            <mxPoint x="120" y="530" as="sourcePoint" />
            <mxPoint x="450" y="480" as="targetPoint" />
          </mxGeometry>
        </mxCell>
        <mxCell id="CN9I-mN8UUnUp_FmiRYe-24" value="Composition" style="text;align=center;fontStyle=1;verticalAlign=middle;spacingLeft=3;spacingRight=3;strokeColor=none;rotatable=0;points=[[0,0.5],[1,0.5]];portConstraint=eastwest;html=1;" vertex="1" parent="WIyWlLk6GJQsqaUBKTNV-1">
          <mxGeometry x="75" y="620" width="80" height="26" as="geometry" />
        </mxCell>
        <mxCell id="CN9I-mN8UUnUp_FmiRYe-25" value="Food" style="swimlane;fontStyle=0;childLayout=stackLayout;horizontal=1;startSize=26;fillColor=none;horizontalStack=0;resizeParent=1;resizeParentMax=0;resizeLast=0;collapsible=1;marginBottom=0;whiteSpace=wrap;html=1;" vertex="1" parent="WIyWlLk6GJQsqaUBKTNV-1">
          <mxGeometry x="75" y="777" width="140" height="100" as="geometry" />
        </mxCell>
        <mxCell id="CN9I-mN8UUnUp_FmiRYe-26" value="- name : QString&lt;br&gt;- description : QString&lt;br&gt;- price : double&lt;br&gt;- category : QString" style="text;strokeColor=none;fillColor=none;align=left;verticalAlign=top;spacingLeft=4;spacingRight=4;overflow=hidden;rotatable=0;points=[[0,0.5],[1,0.5]];portConstraint=eastwest;whiteSpace=wrap;html=1;" vertex="1" parent="CN9I-mN8UUnUp_FmiRYe-25">
          <mxGeometry y="26" width="140" height="74" as="geometry" />
        </mxCell>
        <mxCell id="CN9I-mN8UUnUp_FmiRYe-29" value="1" style="endArrow=open;html=1;endSize=12;startArrow=diamondThin;startSize=14;startFill=1;edgeStyle=orthogonalEdgeStyle;align=left;verticalAlign=bottom;rounded=0;entryX=0.5;entryY=0;entryDx=0;entryDy=0;exitX=0.535;exitY=1.029;exitDx=0;exitDy=0;exitPerimeter=0;" edge="1" parent="WIyWlLk6GJQsqaUBKTNV-1" source="CN9I-mN8UUnUp_FmiRYe-20" target="CN9I-mN8UUnUp_FmiRYe-25">
          <mxGeometry x="-1" y="3" relative="1" as="geometry">
            <mxPoint x="300" y="680" as="sourcePoint" />
            <mxPoint x="460" y="680" as="targetPoint" />
          </mxGeometry>
        </mxCell>
        <mxCell id="CN9I-mN8UUnUp_FmiRYe-30" value="Composition" style="text;align=center;fontStyle=1;verticalAlign=middle;spacingLeft=3;spacingRight=3;strokeColor=none;rotatable=0;points=[[0,0.5],[1,0.5]];portConstraint=eastwest;html=1;" vertex="1" parent="WIyWlLk6GJQsqaUBKTNV-1">
          <mxGeometry x="80" y="740" width="80" height="26" as="geometry" />
        </mxCell>
        <mxCell id="CN9I-mN8UUnUp_FmiRYe-31" value="Customer" style="swimlane;fontStyle=0;childLayout=stackLayout;horizontal=1;startSize=26;fillColor=none;horizontalStack=0;resizeParent=1;resizeParentMax=0;resizeLast=0;collapsible=1;marginBottom=0;whiteSpace=wrap;html=1;" vertex="1" parent="WIyWlLk6GJQsqaUBKTNV-1">
          <mxGeometry x="540" y="390" width="180" height="70" as="geometry" />
        </mxCell>
        <mxCell id="CN9I-mN8UUnUp_FmiRYe-32" value="- cart : QVector&amp;lt;CartItem&amp;gt;&lt;br&gt;- orderHistory :QVector&amp;lt;Order&amp;gt;" style="text;strokeColor=none;fillColor=none;align=left;verticalAlign=top;spacingLeft=4;spacingRight=4;overflow=hidden;rotatable=0;points=[[0,0.5],[1,0.5]];portConstraint=eastwest;whiteSpace=wrap;html=1;" vertex="1" parent="CN9I-mN8UUnUp_FmiRYe-31">
          <mxGeometry y="26" width="180" height="44" as="geometry" />
        </mxCell>
        <mxCell id="CN9I-mN8UUnUp_FmiRYe-35" value="&lt;b&gt;Inheritance&lt;/b&gt;" style="html=1;verticalAlign=bottom;endArrow=block;curved=0;rounded=0;exitX=0.5;exitY=0;exitDx=0;exitDy=0;entryX=1.026;entryY=-0.006;entryDx=0;entryDy=0;entryPerimeter=0;" edge="1" parent="WIyWlLk6GJQsqaUBKTNV-1" target="CN9I-mN8UUnUp_FmiRYe-2">
          <mxGeometry width="80" relative="1" as="geometry">
            <mxPoint x="631.14" y="390" as="sourcePoint" />
            <mxPoint x="480.0000000000001" y="65.45000000000005" as="targetPoint" />
            <Array as="points">
              <mxPoint x="631.14" y="66" />
            </Array>
          </mxGeometry>
        </mxCell>
        <mxCell id="CN9I-mN8UUnUp_FmiRYe-36" value="Order" style="swimlane;fontStyle=0;childLayout=stackLayout;horizontal=1;startSize=26;fillColor=none;horizontalStack=0;resizeParent=1;resizeParentMax=0;resizeLast=0;collapsible=1;marginBottom=0;whiteSpace=wrap;html=1;" vertex="1" parent="WIyWlLk6GJQsqaUBKTNV-1">
          <mxGeometry x="540" y="530" width="180" height="110" as="geometry" />
        </mxCell>
        <mxCell id="CN9I-mN8UUnUp_FmiRYe-37" value="- orderId : int&lt;br&gt;- customerUsername : QString&lt;br&gt;- items : QVector&amp;lt;CartItem&amp;gt;&lt;br&gt;- orderTime : QDateTime&lt;br&gt;- status : Status" style="text;strokeColor=none;fillColor=none;align=left;verticalAlign=top;spacingLeft=4;spacingRight=4;overflow=hidden;rotatable=0;points=[[0,0.5],[1,0.5]];portConstraint=eastwest;whiteSpace=wrap;html=1;" vertex="1" parent="CN9I-mN8UUnUp_FmiRYe-36">
          <mxGeometry y="26" width="180" height="84" as="geometry" />
        </mxCell>
        <mxCell id="CN9I-mN8UUnUp_FmiRYe-41" value="" style="endArrow=open;html=1;endSize=12;startArrow=diamondThin;startSize=14;startFill=1;edgeStyle=orthogonalEdgeStyle;align=left;verticalAlign=bottom;rounded=0;entryX=0.5;entryY=0;entryDx=0;entryDy=0;exitX=0.5;exitY=1;exitDx=0;exitDy=0;" edge="1" parent="WIyWlLk6GJQsqaUBKTNV-1" source="CN9I-mN8UUnUp_FmiRYe-31" target="CN9I-mN8UUnUp_FmiRYe-36">
          <mxGeometry x="-1" y="3" relative="1" as="geometry">
            <mxPoint x="250" y="290" as="sourcePoint" />
            <mxPoint x="410" y="290" as="targetPoint" />
          </mxGeometry>
        </mxCell>
        <mxCell id="CN9I-mN8UUnUp_FmiRYe-43" value="Composition" style="text;align=center;fontStyle=1;verticalAlign=middle;spacingLeft=3;spacingRight=3;strokeColor=none;rotatable=0;points=[[0,0.5],[1,0.5]];portConstraint=eastwest;html=1;" vertex="1" parent="WIyWlLk6GJQsqaUBKTNV-1">
          <mxGeometry x="600" y="470" width="80" height="26" as="geometry" />
        </mxCell>
        <mxCell id="CN9I-mN8UUnUp_FmiRYe-44" value="CartItem" style="swimlane;fontStyle=0;childLayout=stackLayout;horizontal=1;startSize=26;fillColor=none;horizontalStack=0;resizeParent=1;resizeParentMax=0;resizeLast=0;collapsible=1;marginBottom=0;whiteSpace=wrap;html=1;" vertex="1" parent="WIyWlLk6GJQsqaUBKTNV-1">
          <mxGeometry x="760" y="450" width="160" height="100" as="geometry" />
        </mxCell>
        <mxCell id="CN9I-mN8UUnUp_FmiRYe-45" value="- foodName : QString&lt;br&gt;- restaurantName : QString&lt;br&gt;- quantity : int&lt;br&gt;- unitPrice : double" style="text;strokeColor=none;fillColor=none;align=left;verticalAlign=top;spacingLeft=4;spacingRight=4;overflow=hidden;rotatable=0;points=[[0,0.5],[1,0.5]];portConstraint=eastwest;whiteSpace=wrap;html=1;" vertex="1" parent="CN9I-mN8UUnUp_FmiRYe-44">
          <mxGeometry y="26" width="160" height="74" as="geometry" />
        </mxCell>
        <mxCell id="CN9I-mN8UUnUp_FmiRYe-48" value="" style="endArrow=open;html=1;endSize=12;startArrow=diamondThin;startSize=14;startFill=1;edgeStyle=orthogonalEdgeStyle;align=left;verticalAlign=bottom;rounded=0;entryX=0.5;entryY=0;entryDx=0;entryDy=0;exitX=1;exitY=0.5;exitDx=0;exitDy=0;" edge="1" parent="WIyWlLk6GJQsqaUBKTNV-1" source="CN9I-mN8UUnUp_FmiRYe-31" target="CN9I-mN8UUnUp_FmiRYe-44">
          <mxGeometry x="-1" y="3" relative="1" as="geometry">
            <mxPoint x="500" y="250" as="sourcePoint" />
            <mxPoint x="660" y="250" as="targetPoint" />
          </mxGeometry>
        </mxCell>
        <mxCell id="CN9I-mN8UUnUp_FmiRYe-49" value="Composition" style="text;align=center;fontStyle=1;verticalAlign=middle;spacingLeft=3;spacingRight=3;strokeColor=none;rotatable=0;points=[[0,0.5],[1,0.5]];portConstraint=eastwest;html=1;" vertex="1" parent="WIyWlLk6GJQsqaUBKTNV-1">
          <mxGeometry x="540" y="330" width="80" height="26" as="geometry" />
        </mxCell>
        <mxCell id="CN9I-mN8UUnUp_FmiRYe-54" value="ServerManager" style="swimlane;fontStyle=0;childLayout=stackLayout;horizontal=1;startSize=26;fillColor=none;horizontalStack=0;resizeParent=1;resizeParentMax=0;resizeLast=0;collapsible=1;marginBottom=0;whiteSpace=wrap;html=1;" vertex="1" parent="WIyWlLk6GJQsqaUBKTNV-1">
          <mxGeometry x="840" y="40" width="280" height="100" as="geometry" />
        </mxCell>
        <mxCell id="CN9I-mN8UUnUp_FmiRYe-55" value="- server : QTcpServer *&lt;br&gt;&lt;div&gt;- clients : QList&amp;lt;QTcpSocket*&amp;gt;&lt;/div&gt;&lt;div&gt;- dbManager :&amp;nbsp;DatabaseManager&lt;/div&gt;&lt;div&gt;- restaurantSocketMap :&amp;nbsp;QMap&amp;lt;QTcpSocket*, int&amp;gt;&lt;/div&gt;" style="text;strokeColor=none;fillColor=none;align=left;verticalAlign=top;spacingLeft=4;spacingRight=4;overflow=hidden;rotatable=0;points=[[0,0.5],[1,0.5]];portConstraint=eastwest;whiteSpace=wrap;html=1;" vertex="1" parent="CN9I-mN8UUnUp_FmiRYe-54">
          <mxGeometry y="26" width="280" height="74" as="geometry" />
        </mxCell>
        <mxCell id="CN9I-mN8UUnUp_FmiRYe-58" value="DatabaseManager" style="swimlane;fontStyle=0;childLayout=stackLayout;horizontal=1;startSize=26;fillColor=none;horizontalStack=0;resizeParent=1;resizeParentMax=0;resizeLast=0;collapsible=1;marginBottom=0;whiteSpace=wrap;html=1;" vertex="1" parent="WIyWlLk6GJQsqaUBKTNV-1">
          <mxGeometry x="895" y="210" width="170" height="70" as="geometry" />
        </mxCell>
        <mxCell id="CN9I-mN8UUnUp_FmiRYe-59" value="- db : QSqlDatabase&lt;br&gt;- adminList :QVector&amp;lt;Admin&amp;gt;&lt;div&gt;&lt;br&gt;&lt;/div&gt;" style="text;strokeColor=none;fillColor=none;align=left;verticalAlign=top;spacingLeft=4;spacingRight=4;overflow=hidden;rotatable=0;points=[[0,0.5],[1,0.5]];portConstraint=eastwest;whiteSpace=wrap;html=1;" vertex="1" parent="CN9I-mN8UUnUp_FmiRYe-58">
          <mxGeometry y="26" width="170" height="44" as="geometry" />
        </mxCell>
        <mxCell id="CN9I-mN8UUnUp_FmiRYe-63" value="" style="endArrow=open;html=1;endSize=12;startArrow=diamondThin;startSize=14;startFill=1;edgeStyle=orthogonalEdgeStyle;align=left;verticalAlign=bottom;rounded=0;" edge="1" parent="WIyWlLk6GJQsqaUBKTNV-1">
          <mxGeometry x="-1" y="3" relative="1" as="geometry">
            <mxPoint x="134.5" y="420" as="sourcePoint" />
            <mxPoint x="134.5" y="450" as="targetPoint" />
            <Array as="points">
              <mxPoint x="134.5" y="410" />
              <mxPoint x="134.5" y="410" />
            </Array>
          </mxGeometry>
        </mxCell>
        <mxCell id="CN9I-mN8UUnUp_FmiRYe-65" value="" style="endArrow=open;html=1;endSize=12;startArrow=diamondThin;startSize=14;startFill=1;edgeStyle=orthogonalEdgeStyle;align=left;verticalAlign=bottom;rounded=0;entryX=0.5;entryY=0;entryDx=0;entryDy=0;exitX=0.501;exitY=0.986;exitDx=0;exitDy=0;exitPerimeter=0;" edge="1" parent="WIyWlLk6GJQsqaUBKTNV-1" source="CN9I-mN8UUnUp_FmiRYe-55" target="CN9I-mN8UUnUp_FmiRYe-58">
          <mxGeometry x="-1" y="3" relative="1" as="geometry">
            <mxPoint x="500" y="160" as="sourcePoint" />
            <mxPoint x="660" y="160" as="targetPoint" />
            <Array as="points" />
          </mxGeometry>
        </mxCell>
        <mxCell id="CN9I-mN8UUnUp_FmiRYe-66" value="Composition" style="text;align=center;fontStyle=1;verticalAlign=middle;spacingLeft=3;spacingRight=3;strokeColor=none;rotatable=0;points=[[0,0.5],[1,0.5]];portConstraint=eastwest;html=1;" vertex="1" parent="WIyWlLk6GJQsqaUBKTNV-1">
          <mxGeometry x="940" y="160" width="80" height="26" as="geometry" />
        </mxCell>
        <mxCell id="CN9I-mN8UUnUp_FmiRYe-67" value="Admin" style="swimlane;fontStyle=0;childLayout=stackLayout;horizontal=1;startSize=26;fillColor=none;horizontalStack=0;resizeParent=1;resizeParentMax=0;resizeLast=0;collapsible=1;marginBottom=0;whiteSpace=wrap;html=1;" vertex="1" parent="WIyWlLk6GJQsqaUBKTNV-1">
          <mxGeometry x="910" y="325" width="140" height="70" as="geometry" />
        </mxCell>
        <mxCell id="CN9I-mN8UUnUp_FmiRYe-68" value="- username : QString&lt;br&gt;- password : QString" style="text;strokeColor=none;fillColor=none;align=left;verticalAlign=top;spacingLeft=4;spacingRight=4;overflow=hidden;rotatable=0;points=[[0,0.5],[1,0.5]];portConstraint=eastwest;whiteSpace=wrap;html=1;" vertex="1" parent="CN9I-mN8UUnUp_FmiRYe-67">
          <mxGeometry y="26" width="140" height="44" as="geometry" />
        </mxCell>
        <mxCell id="CN9I-mN8UUnUp_FmiRYe-72" value="" style="endArrow=open;html=1;endSize=12;startArrow=diamondThin;startSize=14;startFill=1;edgeStyle=orthogonalEdgeStyle;align=left;verticalAlign=bottom;rounded=0;entryX=0.5;entryY=0;entryDx=0;entryDy=0;" edge="1" parent="WIyWlLk6GJQsqaUBKTNV-1" target="CN9I-mN8UUnUp_FmiRYe-67">
          <mxGeometry x="-1" y="3" relative="1" as="geometry">
            <mxPoint x="979" y="272" as="sourcePoint" />
            <mxPoint x="560" y="280" as="targetPoint" />
            <Array as="points">
              <mxPoint x="980" y="280" />
            </Array>
          </mxGeometry>
        </mxCell>
        <mxCell id="CN9I-mN8UUnUp_FmiRYe-74" value="Composition" style="text;align=center;fontStyle=1;verticalAlign=middle;spacingLeft=3;spacingRight=3;strokeColor=none;rotatable=0;points=[[0,0.5],[1,0.5]];portConstraint=eastwest;html=1;" vertex="1" parent="WIyWlLk6GJQsqaUBKTNV-1">
          <mxGeometry x="910" y="290" width="80" height="26" as="geometry" />
        </mxCell>
        <mxCell id="CN9I-mN8UUnUp_FmiRYe-75" value="ClientSocketManager" style="swimlane;fontStyle=0;childLayout=stackLayout;horizontal=1;startSize=26;fillColor=none;horizontalStack=0;resizeParent=1;resizeParentMax=0;resizeLast=0;collapsible=1;marginBottom=0;whiteSpace=wrap;html=1;" vertex="1" parent="WIyWlLk6GJQsqaUBKTNV-1">
          <mxGeometry x="505" y="1540" width="140" height="52" as="geometry" />
        </mxCell>
        <mxCell id="CN9I-mN8UUnUp_FmiRYe-76" value="-&amp;nbsp;socket :&amp;nbsp;QTcpSocket *" style="text;strokeColor=none;fillColor=none;align=left;verticalAlign=top;spacingLeft=4;spacingRight=4;overflow=hidden;rotatable=0;points=[[0,0.5],[1,0.5]];portConstraint=eastwest;whiteSpace=wrap;html=1;" vertex="1" parent="CN9I-mN8UUnUp_FmiRYe-75">
          <mxGeometry y="26" width="140" height="26" as="geometry" />
        </mxCell>
        <mxCell id="CN9I-mN8UUnUp_FmiRYe-79" value="LoginWindow" style="swimlane;fontStyle=0;childLayout=stackLayout;horizontal=1;startSize=26;fillColor=none;horizontalStack=0;resizeParent=1;resizeParentMax=0;resizeLast=0;collapsible=1;marginBottom=0;whiteSpace=wrap;html=1;" vertex="1" parent="WIyWlLk6GJQsqaUBKTNV-1">
          <mxGeometry x="560" y="725" width="140" height="52" as="geometry" />
        </mxCell>
        <mxCell id="CN9I-mN8UUnUp_FmiRYe-80" value="-&amp;nbsp;ui :&amp;nbsp;Ui::LoginWindow *" style="text;strokeColor=none;fillColor=none;align=left;verticalAlign=top;spacingLeft=4;spacingRight=4;overflow=hidden;rotatable=0;points=[[0,0.5],[1,0.5]];portConstraint=eastwest;whiteSpace=wrap;html=1;" vertex="1" parent="CN9I-mN8UUnUp_FmiRYe-79">
          <mxGeometry y="26" width="140" height="26" as="geometry" />
        </mxCell>
        <mxCell id="CN9I-mN8UUnUp_FmiRYe-83" value="SignInWindow" style="swimlane;fontStyle=0;childLayout=stackLayout;horizontal=1;startSize=26;fillColor=none;horizontalStack=0;resizeParent=1;resizeParentMax=0;resizeLast=0;collapsible=1;marginBottom=0;whiteSpace=wrap;html=1;" vertex="1" parent="WIyWlLk6GJQsqaUBKTNV-1">
          <mxGeometry x="900" y="1010" width="220" height="160" as="geometry" />
        </mxCell>
        <mxCell id="CN9I-mN8UUnUp_FmiRYe-84" value="&lt;div&gt;- ui : Ui::SignInWindow *&lt;/div&gt;&lt;div&gt;-&amp;nbsp;clientSocket :&amp;nbsp;ClientSocketManager *&lt;/div&gt;&lt;div&gt;-&amp;nbsp;loginWindow :&amp;nbsp;LoginWindow *&lt;/div&gt;&lt;div&gt;-&amp;nbsp;selectedRole : QString&lt;/div&gt;&lt;div&gt;- cachedFirstName : QString&lt;/div&gt;&lt;div&gt;- cachedLastName : QString&lt;/div&gt;&lt;div&gt;- cachedPassword : QString&lt;/div&gt;&lt;div&gt;- cachedPhone : QString&lt;br&gt;&lt;br&gt;&lt;/div&gt;" style="text;strokeColor=none;fillColor=none;align=left;verticalAlign=top;spacingLeft=4;spacingRight=4;overflow=hidden;rotatable=0;points=[[0,0.5],[1,0.5]];portConstraint=eastwest;whiteSpace=wrap;html=1;" vertex="1" parent="CN9I-mN8UUnUp_FmiRYe-83">
          <mxGeometry y="26" width="220" height="134" as="geometry" />
        </mxCell>
        <mxCell id="CN9I-mN8UUnUp_FmiRYe-89" value="&lt;strong&gt;Association&lt;/strong&gt; " style="text;align=center;fontStyle=1;verticalAlign=middle;spacingLeft=3;spacingRight=3;strokeColor=none;rotatable=0;points=[[0,0.5],[1,0.5]];portConstraint=eastwest;html=1;" vertex="1" parent="WIyWlLk6GJQsqaUBKTNV-1">
          <mxGeometry x="920" y="725" width="80" height="26" as="geometry" />
        </mxCell>
        <mxCell id="CN9I-mN8UUnUp_FmiRYe-93" value="" style="endArrow=none;html=1;rounded=0;entryX=0.492;entryY=1.016;entryDx=0;entryDy=0;entryPerimeter=0;" edge="1" parent="WIyWlLk6GJQsqaUBKTNV-1" target="CN9I-mN8UUnUp_FmiRYe-84">
          <mxGeometry width="50" height="50" relative="1" as="geometry">
            <mxPoint x="1010" y="1570" as="sourcePoint" />
            <mxPoint x="690" y="930" as="targetPoint" />
          </mxGeometry>
        </mxCell>
        <mxCell id="CN9I-mN8UUnUp_FmiRYe-94" value="" style="endArrow=none;html=1;rounded=0;exitX=1.032;exitY=0.135;exitDx=0;exitDy=0;exitPerimeter=0;" edge="1" parent="WIyWlLk6GJQsqaUBKTNV-1" source="CN9I-mN8UUnUp_FmiRYe-76">
          <mxGeometry width="50" height="50" relative="1" as="geometry">
            <mxPoint x="680" y="1570" as="sourcePoint" />
            <mxPoint x="1010" y="1570" as="targetPoint" />
          </mxGeometry>
        </mxCell>
        <mxCell id="CN9I-mN8UUnUp_FmiRYe-95" value="&lt;strong&gt;Association&lt;/strong&gt; " style="text;align=center;fontStyle=1;verticalAlign=middle;spacingLeft=3;spacingRight=3;strokeColor=none;rotatable=0;points=[[0,0.5],[1,0.5]];portConstraint=eastwest;html=1;" vertex="1" parent="WIyWlLk6GJQsqaUBKTNV-1">
          <mxGeometry x="840" y="1550" width="80" height="26" as="geometry" />
        </mxCell>
        <mxCell id="CN9I-mN8UUnUp_FmiRYe-96" value="CustomerSignUp" style="swimlane;fontStyle=0;childLayout=stackLayout;horizontal=1;startSize=26;fillColor=none;horizontalStack=0;resizeParent=1;resizeParentMax=0;resizeLast=0;collapsible=1;marginBottom=0;whiteSpace=wrap;html=1;" vertex="1" parent="WIyWlLk6GJQsqaUBKTNV-1">
          <mxGeometry x="600" y="1010" width="220" height="160" as="geometry" />
        </mxCell>
        <mxCell id="CN9I-mN8UUnUp_FmiRYe-97" value="&amp;nbsp;- ui : Ui::customersignup *&lt;br&gt;&lt;div&gt;- clientSocket : ClientSocketManager *&lt;/div&gt;&lt;div&gt;-&amp;nbsp;loginWindow :&amp;nbsp;LoginWindow *&lt;/div&gt;- customer : Customer*&lt;br&gt;&lt;div&gt;- firstName : QString&lt;/div&gt;&lt;div&gt;- lastName :&amp;nbsp;QString&lt;/div&gt;&lt;div&gt;- phone :&amp;nbsp;QString&lt;/div&gt;&lt;div&gt;- password :&amp;nbsp;QString&lt;/div&gt;" style="text;strokeColor=none;fillColor=none;align=left;verticalAlign=top;spacingLeft=4;spacingRight=4;overflow=hidden;rotatable=0;points=[[0,0.5],[1,0.5]];portConstraint=eastwest;whiteSpace=wrap;html=1;" vertex="1" parent="CN9I-mN8UUnUp_FmiRYe-96">
          <mxGeometry y="26" width="220" height="134" as="geometry" />
        </mxCell>
        <mxCell id="CN9I-mN8UUnUp_FmiRYe-101" value="&lt;strong&gt;Association&lt;/strong&gt; " style="text;align=center;fontStyle=1;verticalAlign=middle;spacingLeft=3;spacingRight=3;strokeColor=none;rotatable=0;points=[[0,0.5],[1,0.5]];portConstraint=eastwest;html=1;" vertex="1" parent="WIyWlLk6GJQsqaUBKTNV-1">
          <mxGeometry x="600" y="890" width="80" height="26" as="geometry" />
        </mxCell>
        <mxCell id="CN9I-mN8UUnUp_FmiRYe-103" value="&lt;strong&gt;Association&lt;/strong&gt; " style="text;align=center;fontStyle=1;verticalAlign=middle;spacingLeft=3;spacingRight=3;strokeColor=none;rotatable=0;points=[[0,0.5],[1,0.5]];portConstraint=eastwest;html=1;" vertex="1" parent="WIyWlLk6GJQsqaUBKTNV-1">
          <mxGeometry x="670" y="1230" width="80" height="26" as="geometry" />
        </mxCell>
        <mxCell id="CN9I-mN8UUnUp_FmiRYe-105" value="" style="endArrow=none;html=1;rounded=0;exitX=0;exitY=0.138;exitDx=0;exitDy=0;exitPerimeter=0;entryX=-0.008;entryY=-0.057;entryDx=0;entryDy=0;entryPerimeter=0;" edge="1" parent="WIyWlLk6GJQsqaUBKTNV-1" source="CN9I-mN8UUnUp_FmiRYe-96" target="CN9I-mN8UUnUp_FmiRYe-32">
          <mxGeometry width="50" height="50" relative="1" as="geometry">
            <mxPoint x="310" y="780" as="sourcePoint" />
            <mxPoint x="320" y="400" as="targetPoint" />
            <Array as="points">
              <mxPoint x="480" y="1032" />
              <mxPoint x="480" y="413" />
            </Array>
          </mxGeometry>
        </mxCell>
        <mxCell id="CN9I-mN8UUnUp_FmiRYe-106" value="&lt;strong&gt;Association&lt;/strong&gt; " style="text;align=center;fontStyle=1;verticalAlign=middle;spacingLeft=3;spacingRight=3;strokeColor=none;rotatable=0;points=[[0,0.5],[1,0.5]];portConstraint=eastwest;html=1;" vertex="1" parent="WIyWlLk6GJQsqaUBKTNV-1">
          <mxGeometry x="505" y="1010" width="80" height="26" as="geometry" />
        </mxCell>
        <mxCell id="CN9I-mN8UUnUp_FmiRYe-108" value="" style="endArrow=none;html=1;rounded=0;entryX=0.493;entryY=1.011;entryDx=0;entryDy=0;entryPerimeter=0;exitX=0.5;exitY=0;exitDx=0;exitDy=0;" edge="1" parent="WIyWlLk6GJQsqaUBKTNV-1" source="CN9I-mN8UUnUp_FmiRYe-75" target="CN9I-mN8UUnUp_FmiRYe-97">
          <mxGeometry width="50" height="50" relative="1" as="geometry">
            <mxPoint x="510" y="1240" as="sourcePoint" />
            <mxPoint x="560" y="1190" as="targetPoint" />
            <Array as="points">
              <mxPoint x="708" y="1540" />
            </Array>
          </mxGeometry>
        </mxCell>
        <mxCell id="CN9I-mN8UUnUp_FmiRYe-110" value="" style="endArrow=open;html=1;endSize=12;startArrow=diamondThin;startSize=14;startFill=1;edgeStyle=orthogonalEdgeStyle;align=left;verticalAlign=bottom;rounded=0;entryX=0.491;entryY=1.047;entryDx=0;entryDy=0;entryPerimeter=0;" edge="1" parent="WIyWlLk6GJQsqaUBKTNV-1" target="CN9I-mN8UUnUp_FmiRYe-45">
          <mxGeometry x="-1" y="3" relative="1" as="geometry">
            <mxPoint x="730" y="570" as="sourcePoint" />
            <mxPoint x="640" y="700" as="targetPoint" />
            <Array as="points">
              <mxPoint x="724" y="598" />
              <mxPoint x="839" y="598" />
            </Array>
          </mxGeometry>
        </mxCell>
        <mxCell id="CN9I-mN8UUnUp_FmiRYe-112" value="Composition" style="text;align=center;fontStyle=1;verticalAlign=middle;spacingLeft=3;spacingRight=3;strokeColor=none;rotatable=0;points=[[0,0.5],[1,0.5]];portConstraint=eastwest;html=1;" vertex="1" parent="WIyWlLk6GJQsqaUBKTNV-1">
          <mxGeometry x="750" y="574" width="80" height="26" as="geometry" />
        </mxCell>
        <mxCell id="CN9I-mN8UUnUp_FmiRYe-114" value="" style="endArrow=none;html=1;rounded=0;entryX=1.032;entryY=0.096;entryDx=0;entryDy=0;entryPerimeter=0;exitX=0.5;exitY=0;exitDx=0;exitDy=0;" edge="1" parent="WIyWlLk6GJQsqaUBKTNV-1">
          <mxGeometry width="50" height="50" relative="1" as="geometry">
            <mxPoint x="1005.52" y="1010" as="sourcePoint" />
            <mxPoint x="700" y="753.4959999999996" as="targetPoint" />
            <Array as="points">
              <mxPoint x="1005.52" y="753" />
            </Array>
          </mxGeometry>
        </mxCell>
        <mxCell id="CN9I-mN8UUnUp_FmiRYe-115" value="" style="endArrow=none;html=1;rounded=0;exitX=0.189;exitY=0.022;exitDx=0;exitDy=0;exitPerimeter=0;" edge="1" parent="WIyWlLk6GJQsqaUBKTNV-1" source="CN9I-mN8UUnUp_FmiRYe-96">
          <mxGeometry width="50" height="50" relative="1" as="geometry">
            <mxPoint x="510" y="1000" as="sourcePoint" />
            <mxPoint x="642" y="780" as="targetPoint" />
          </mxGeometry>
        </mxCell>
        <mxCell id="CN9I-mN8UUnUp_FmiRYe-116" value="RestaurantOwnerSignUp" style="swimlane;fontStyle=0;childLayout=stackLayout;horizontal=1;startSize=26;fillColor=none;horizontalStack=0;resizeParent=1;resizeParentMax=0;resizeLast=0;collapsible=1;marginBottom=0;whiteSpace=wrap;html=1;" vertex="1" parent="WIyWlLk6GJQsqaUBKTNV-1">
          <mxGeometry x="170" y="920" width="280" height="220" as="geometry" />
        </mxCell>
        <mxCell id="CN9I-mN8UUnUp_FmiRYe-117" value="&lt;div&gt;- ui : Ui::RestaurantOwnerSignUp *&lt;/div&gt;&lt;div&gt;-&amp;nbsp;clientSocket :&amp;nbsp;ClientSocketManager *&lt;/div&gt;&lt;div&gt;- provinceCitiesMap : QMap&amp;lt;QString, QStringList&amp;gt;&lt;/div&gt;- loginWindow : LoginWindow *&lt;br&gt;&lt;div&gt;- cachedRestaurantName : QString&lt;/div&gt;&lt;div&gt;- cachedOwnerFirstName :&amp;nbsp;QString&lt;/div&gt;- cachedOwnerLastName : QString&lt;br&gt;- cachedPhone : QString&lt;br&gt;- cachedProvince : QString&lt;br&gt;- cachedCity : QString&lt;br&gt;- cachedPassword : QString&lt;br&gt;- cachedRestaurantType : QString" style="text;strokeColor=none;fillColor=none;align=left;verticalAlign=top;spacingLeft=4;spacingRight=4;overflow=hidden;rotatable=0;points=[[0,0.5],[1,0.5]];portConstraint=eastwest;whiteSpace=wrap;html=1;" vertex="1" parent="CN9I-mN8UUnUp_FmiRYe-116">
          <mxGeometry y="26" width="280" height="194" as="geometry" />
        </mxCell>
        <mxCell id="CN9I-mN8UUnUp_FmiRYe-120" value="" style="endArrow=open;html=1;endSize=12;startArrow=diamondThin;startSize=14;startFill=1;edgeStyle=orthogonalEdgeStyle;align=left;verticalAlign=bottom;rounded=0;" edge="1" parent="WIyWlLk6GJQsqaUBKTNV-1" target="CN9I-mN8UUnUp_FmiRYe-76">
          <mxGeometry x="-1" y="3" relative="1" as="geometry">
            <mxPoint x="430" y="1150" as="sourcePoint" />
            <mxPoint x="440" y="1570" as="targetPoint" />
            <Array as="points">
              <mxPoint x="430" y="1144" />
              <mxPoint x="430" y="1570" />
            </Array>
          </mxGeometry>
        </mxCell>
        <mxCell id="CN9I-mN8UUnUp_FmiRYe-121" value="Composition" style="text;align=center;fontStyle=1;verticalAlign=middle;spacingLeft=3;spacingRight=3;strokeColor=none;rotatable=0;points=[[0,0.5],[1,0.5]];portConstraint=eastwest;html=1;" vertex="1" parent="WIyWlLk6GJQsqaUBKTNV-1">
          <mxGeometry x="410" y="1540" width="80" height="26" as="geometry" />
        </mxCell>
        <mxCell id="CN9I-mN8UUnUp_FmiRYe-122" value="" style="endArrow=none;html=1;rounded=0;entryX=0;entryY=0.25;entryDx=0;entryDy=0;exitX=0.75;exitY=0;exitDx=0;exitDy=0;" edge="1" parent="WIyWlLk6GJQsqaUBKTNV-1" source="CN9I-mN8UUnUp_FmiRYe-116" target="CN9I-mN8UUnUp_FmiRYe-79">
          <mxGeometry width="50" height="50" relative="1" as="geometry">
            <mxPoint x="290" y="920" as="sourcePoint" />
            <mxPoint x="340" y="870" as="targetPoint" />
            <Array as="points">
              <mxPoint x="380" y="740" />
            </Array>
          </mxGeometry>
        </mxCell>
        <mxCell id="CN9I-mN8UUnUp_FmiRYe-123" value="&lt;strong&gt;Association&lt;/strong&gt; " style="text;align=center;fontStyle=1;verticalAlign=middle;spacingLeft=3;spacingRight=3;strokeColor=none;rotatable=0;points=[[0,0.5],[1,0.5]];portConstraint=eastwest;html=1;" vertex="1" parent="WIyWlLk6GJQsqaUBKTNV-1">
          <mxGeometry x="380" y="714" width="80" height="26" as="geometry" />
        </mxCell>
      </root>
    </mxGraphModel>
  </diagram>
</mxfile>
